<svg xmlns="http://www.w3.org/2000/svg" width="206.106" height="160.627" viewBox="0 0 206.106 160.627"><defs><style>.a{fill:#034b00;}.b{fill:#057e00;}.c{fill:#07693f;}.d{fill:#009657;}</style></defs><g transform="translate(0 0)"><g transform="translate(89.488 -24)"><path class="a" d="M10.2,0c-10.375,0-.26,19.674-2.8,32.259S-6.214,60.846,3.959,66.974s24.172-9.766,25.213-36.3S20.58,0,10.2,0Z" transform="translate(45.104 88.706)"/><path class="b" d="M1.381,0c-4.71,0,3.731,6.163,8.427,14.272S20.166,42.217,20.166,32.436c0-9.584.255-19.581-3.714-25.735C13.267,1.756,6.205,0,1.381,0Z" transform="translate(53.928 88.706)"/></g><g transform="translate(-4)"><path class="a" d="M19,0c10.493,0,.263,19.674,2.829,32.259s13.777,28.587,3.488,34.716S.869,57.209-.184,30.67,8.507,0,19,0Z" transform="translate(45.104 88.706)"/><path class="b" d="M19,0c4.764,0-3.773,6.163-8.523,14.272S0,42.217,0,32.436C0,22.852-.258,12.855,3.756,6.7,6.978,1.756,14.121,0,19,0Z" transform="translate(45.104 88.706)"/></g><path class="c" d="M362.163,316.664l2.73,1.067,2.461,2.508,3.131-1.8,3.474-.7-3.474-3.235a19.386,19.386,0,0,1,4.055-10.479,25.093,25.093,0,0,1,9.02-6.853s-6.832.033-11.595,4.467a20.626,20.626,0,0,0-5.859,11.88C366.049,313.987,362.163,316.664,362.163,316.664Z" transform="translate(-309.896 -226.561)"/><path class="c" d="M384.315,315.466l-2.948,1.228-1.681,3.528-1.717-2.863h-4.429l3.044-3.009a19.644,19.644,0,0,0-4.287-10.333,25.353,25.353,0,0,0-9.115-6.853s6.9.033,11.717,4.467c3.773,3.476,5.168,9.034,5.543,12.215C380.5,314.323,384.315,315.466,384.315,315.466Z" transform="translate(-232.488 -250.561)"/><path class="d" d="M396.566,382.827l.789-87.379-10.858-4.3s-43.431,40.674-87.759-50.341c86.99-9.461,90.543,41.445,90.543,41.445l9.89,4.426c3.152-16.668,16.267-29.643,16.267-29.643S411.3,208,504.844,226.284c-47.155,73.464-85.1,38.5-85.1,38.5s-10.577,6.8-12.326,36.314,5.329,81.729,5.329,81.729Z" transform="translate(-298.738 -222.2)"/><path class="c" d="M406.717,382.827c-4.489-28.021-5.084-74.036-4.248-83.429s2.3-24.421,17.272-41.461c35.956-3.2,46.565-39.187,85.1-31.653-47.155,73.464-85.1,38.5-85.1,38.5s-10.577,6.8-12.326,36.314,5.329,81.729,5.329,81.729Z" transform="translate(-298.738 -222.2)"/><path class="c" d="M397.355,295.447l-10.858-4.3s-43.431,40.674-87.759-50.341c36.307,41.72,40.616,55.251,87.759,44.876,2.649,5.535,11.765,5.465,11.765,5.465Z" transform="translate(-298.738 -222.2)"/></g></svg>