<svg xmlns="http://www.w3.org/2000/svg" width="53.186" height="106.622" viewBox="0 0 53.186 106.622"><defs><style>.a{fill:#4db4ff;}.b{fill:#a8daff;}</style></defs><g transform="translate(6.116 33.115)"><g transform="translate(-6 -1)"><path class="a" d="M45.342,281.89s-9.108,18.077-6.962,24.1,13.8,6.026,15.545,0S45.342,281.89,45.342,281.89Z" transform="translate(-38.053 -270.005)"/><path class="b" d="M47.252,308.342c-1.4,4.663-6.818-.826-6.365-3.526s1.132-5.058,2.2-5.493C45.221,298.433,48.291,304.887,47.252,308.342Z" transform="matrix(0.995, -0.105, 0.105, 0.995, -72.032, -264.71)"/></g><g transform="translate(16 33)"><path class="a" d="M45.342,281.89s-9.108,18.077-6.962,24.1,13.8,6.026,15.545,0S45.342,281.89,45.342,281.89Z" transform="translate(-38.053 -270.005)"/><path class="b" d="M47.252,308.342c-1.4,4.663-6.818-.826-6.365-3.526s1.132-5.058,2.2-5.493C45.221,298.433,48.291,304.887,47.252,308.342Z" transform="matrix(0.995, -0.105, 0.105, 0.995, -72.032, -264.71)"/></g><g transform="translate(16 33)"><path class="a" d="M45.342,281.89s-9.108,18.077-6.962,24.1,13.8,6.026,15.545,0S45.342,281.89,45.342,281.89Z" transform="translate(-38.053 -270.005)"/><path class="b" d="M47.252,308.342c-1.4,4.663-6.818-.826-6.365-3.526s1.132-5.058,2.2-5.493C45.221,298.433,48.291,304.887,47.252,308.342Z" transform="matrix(0.995, -0.105, 0.105, 0.995, -72.032, -264.71)"/></g><g transform="translate(31 -13)"><path class="a" d="M45.342,281.89s-9.108,18.077-6.962,24.1,13.8,6.026,15.545,0S45.342,281.89,45.342,281.89Z" transform="translate(-38.053 -270.005)"/><path class="b" d="M47.252,308.342c-1.4,4.663-6.818-.826-6.365-3.526s1.132-5.058,2.2-5.493C45.221,298.433,48.291,304.887,47.252,308.342Z" transform="matrix(0.995, -0.105, 0.105, 0.995, -72.032, -264.71)"/></g><g transform="translate(5 -45)"><path class="a" d="M45.342,281.89s-9.108,18.077-6.962,24.1,13.8,6.026,15.545,0S45.342,281.89,45.342,281.89Z" transform="translate(-38.053 -270.005)"/><path class="b" d="M47.252,308.342c-1.4,4.663-6.818-.826-6.365-3.526s1.132-5.058,2.2-5.493C45.221,298.433,48.291,304.887,47.252,308.342Z" transform="matrix(0.995, -0.105, 0.105, 0.995, -72.032, -264.71)"/></g></g></svg>