<svg xmlns="http://www.w3.org/2000/svg" width="149.699" height="153.607" viewBox="0 0 149.699 153.607"><defs><style>.a{fill:#48aa00;}.b{fill:#296200;}.c{fill:#378101;}</style></defs><g transform="translate(-334.339 -231.548)"><path class="a" d="M408.279,385.155s.288-45.287,0-53.881c-.642,1.057-5.6,8.023-5.6,8.023a1.662,1.662,0,0,0-2.342.329,45.226,45.226,0,0,0-2.4,4.714,13.87,13.87,0,0,0-3.441,1.876,34.41,34.41,0,0,0-1.66,3.185,3.578,3.578,0,0,0-2.517.965,25.894,25.894,0,0,0-2.051,3.481,4.747,4.747,0,0,0-2.754.908,25.982,25.982,0,0,0-2.246,3.782,4.8,4.8,0,0,0-3.073.712c-.506.413-1.823,3.791-1.823,3.791s-1.313-1.294-2.041-.733c-2.621,2.021-4.457,3.3-4.457,3.3l.227-3.969-1.35-2.39s2.162-4.153,2.178-4.493a12.732,12.732,0,0,0-.754-3.534,22.156,22.156,0,0,0,2.463-4.247,13.419,13.419,0,0,0,0-3.731,23.673,23.673,0,0,0,3.734-3.946,13.3,13.3,0,0,0,1.014-4.5s5.138-3.758,6.994-5.6a42.037,42.037,0,0,1-9.266,1.788,55.971,55.971,0,0,0-5.726,1.5s-.426-1.207-1.414-1.209c-1.087,0-6.934.4-6.934.4s-.76-1.3-1.6-1.35a78.452,78.452,0,0,0-8.068.659s-.729-1.09-3.154-1.469a65.446,65.446,0,0,0-8.466,0s.068-1.527-1.015-1.758c-2.564-.544-4.386-1.014-4.386-1.014s1.362-.6,4.183-1.753c.716-.292.811-2.3.811-2.3s6.714-.631,9.5-1.631a3.512,3.512,0,0,0,1.827-2.386,84.154,84.154,0,0,0,9.521-1.382,2.32,2.32,0,0,0,1.707-2.095s8.1-.606,10.274-1.094c2.388-.536,5.063-1.051,7.675-1.439-1.541-.644-5.051-2.449-5.051-2.449h-3.142a3.214,3.214,0,0,0-1.473-2.825,37.4,37.4,0,0,0-5.434-1.6s.655-1.907-.4-2.781c-1.187-.981-8.752-4.488-8.752-4.488s1.616-2.145.244-3.622c-1.16-1.248-6.439-3.992-6.439-3.992s.715-2.713-.305-4.048c-1.139-1.489-6.5-5.556-6.5-5.556s.911-2.412,0-3.878c-1.929-3.1-3.02-5.247-3.02-5.247s1.668.275,4.909.946c1.347.278,4.917-.946,4.917-.946s4.829,3.2,7.238,3.844c1.742.466,5.075-.344,5.075-.344s4.813,3.268,6.872,3.973c1.63.558,4.137-.691,4.137-.691s5.41,4.355,7.521,5.336a6.489,6.489,0,0,0,4.145,0s3.6,5.292,5.335,6.612c.835.633,2.531-.788,2.531-.788s4,5.294,4.973,6.751c-.115-2.167-2.115-9.959-2.115-9.959a4.937,4.937,0,0,0,2.186-3.829,54.426,54.426,0,0,0-.975-6.541,5.02,5.02,0,0,0,1.856-2.966,55.777,55.777,0,0,0-.535-7.329,8.57,8.57,0,0,0,2.329-3.811,65.62,65.62,0,0,0,0-7.585,5.008,5.008,0,0,0,2.377-2.825c.484-1.868.572-8.881.572-8.881s2.626-2.007,3.373-4.166c1.592-4.605,2.835-7.43,2.835-7.43V385.155Z" transform="translate(-2)"/><path class="a" d="M339.18,385.155s-.289-45.287,0-53.881c.643,1.057,5.616,8.023,5.616,8.023a1.668,1.668,0,0,1,2.347.329,45.191,45.191,0,0,1,2.407,4.714A13.907,13.907,0,0,1,353,346.216a34.386,34.386,0,0,1,1.664,3.185,3.59,3.59,0,0,1,2.522.965,25.882,25.882,0,0,1,2.055,3.481,4.764,4.764,0,0,1,2.759.908,25.971,25.971,0,0,1,2.251,3.782,4.817,4.817,0,0,1,3.079.712c.507.413,1.827,3.791,1.827,3.791s1.315-1.294,2.045-.733c2.626,2.021,4.466,3.3,4.466,3.3l-.228-3.969,1.353-2.39s-2.167-4.153-2.182-4.493a12.71,12.71,0,0,1,.756-3.534,22.147,22.147,0,0,1-2.468-4.247,13.393,13.393,0,0,1,0-3.731,23.694,23.694,0,0,1-3.741-3.946,13.278,13.278,0,0,1-1.016-4.5s-5.149-3.758-7.008-5.6a42.2,42.2,0,0,0,9.284,1.788,56.174,56.174,0,0,1,5.737,1.5s.427-1.207,1.417-1.209c1.089,0,6.948.4,6.948.4s.762-1.3,1.608-1.35a78.765,78.765,0,0,1,8.084.659s.73-1.09,3.16-1.469a65.709,65.709,0,0,1,8.483,0s-.068-1.527,1.017-1.758c2.569-.544,4.4-1.014,4.4-1.014s-1.364-.6-4.191-1.753c-.717-.292-.813-2.3-.813-2.3s-6.728-.631-9.514-1.631a3.512,3.512,0,0,1-1.831-2.386,84.481,84.481,0,0,1-9.54-1.382,2.321,2.321,0,0,1-1.711-2.095s-8.117-.606-10.3-1.094c-2.392-.536-5.073-1.051-7.69-1.439,1.544-.644,5.062-2.449,5.062-2.449h3.148a3.211,3.211,0,0,1,1.476-2.825,37.534,37.534,0,0,1,5.445-1.6s-.656-1.907.4-2.781c1.19-.981,8.77-4.488,8.77-4.488s-1.62-2.145-.245-3.622c1.162-1.248,6.452-3.992,6.452-3.992s-.717-2.713.306-4.048c1.141-1.489,6.514-5.556,6.514-5.556s-.913-2.412,0-3.878c1.933-3.1,3.026-5.247,3.026-5.247s-1.671.275-4.919.946c-1.349.278-4.927-.946-4.927-.946s-4.838,3.2-7.252,3.844c-1.746.466-5.085-.344-5.085-.344s-4.823,3.268-6.885,3.973c-1.634.558-4.145-.691-4.145-.691s-5.421,4.355-7.536,5.336a6.514,6.514,0,0,1-4.153,0s-3.6,5.292-5.346,6.612c-.836.633-2.536-.788-2.536-.788s-4.01,5.294-4.983,6.751c.115-2.167,2.119-9.959,2.119-9.959a4.937,4.937,0,0,1-2.19-3.829,54.329,54.329,0,0,1,.977-6.541,5.02,5.02,0,0,1-1.859-2.966,55.667,55.667,0,0,1,.536-7.329,8.568,8.568,0,0,1-2.333-3.811,65.5,65.5,0,0,1,0-7.585,5.012,5.012,0,0,1-2.381-2.825c-.485-1.868-.574-8.881-.574-8.881s-2.631-2.007-3.379-4.166c-1.6-4.605-2.841-7.43-2.841-7.43V385.155Z" transform="translate(72.775)"/><g transform="translate(74.822 76.775)"><path class="b" d="M372.322,308.38s.144-22.652,0-26.951c-.321.529-2.8,4.013-2.8,4.013a.832.832,0,0,0-1.172.164,22.624,22.624,0,0,0-1.2,2.358,6.938,6.938,0,0,0-1.721.938,17.211,17.211,0,0,0-.831,1.593,1.79,1.79,0,0,0-1.259.483,12.952,12.952,0,0,0-1.026,1.741,2.374,2.374,0,0,0-1.377.454,13,13,0,0,0-1.124,1.892,2.4,2.4,0,0,0-1.537.356,10.541,10.541,0,0,0-.912,1.9s-.657-.647-1.021-.366c-1.311,1.011-2.229,1.651-2.229,1.651l.114-1.985-.675-1.2s1.081-2.077,1.089-2.248a6.369,6.369,0,0,0-.377-1.768,11.082,11.082,0,0,0,1.232-2.124,6.712,6.712,0,0,0,0-1.866,11.841,11.841,0,0,0,1.868-1.974,6.653,6.653,0,0,0,.507-2.248s2.57-1.88,3.5-2.8a21.027,21.027,0,0,1-4.634.894,27.989,27.989,0,0,0-2.864.748s-.213-.6-.707-.6c-.544,0-3.468.2-3.468.2s-.38-.649-.8-.675a39.233,39.233,0,0,0-4.035.329,2.308,2.308,0,0,0-1.577-.735,32.733,32.733,0,0,0-4.235,0s.034-.764-.508-.879c-1.282-.272-2.194-.507-2.194-.507s.681-.3,2.092-.877c.358-.146.406-1.152.406-1.152a28.583,28.583,0,0,0,4.749-.816,1.757,1.757,0,0,0,.914-1.194,42.1,42.1,0,0,0,4.762-.691,1.161,1.161,0,0,0,.854-1.048s4.052-.3,5.139-.547c1.194-.268,2.533-.526,3.839-.72-.771-.322-2.527-1.225-2.527-1.225H355a1.607,1.607,0,0,0-.737-1.413,18.707,18.707,0,0,0-2.718-.8s.328-.954-.2-1.391a48.092,48.092,0,0,0-4.378-2.245s.808-1.073.122-1.812a20.772,20.772,0,0,0-3.221-2s.358-1.357-.153-2.025a30.324,30.324,0,0,0-3.252-2.779,2.631,2.631,0,0,0,0-1.94c-.965-1.553-1.511-2.625-1.511-2.625s.834.138,2.456.473a7.686,7.686,0,0,0,2.46-.473,19.062,19.062,0,0,0,3.62,1.922,6.993,6.993,0,0,0,2.539-.172,24.035,24.035,0,0,0,3.437,1.987,3.406,3.406,0,0,0,2.069-.346,32.506,32.506,0,0,0,3.762,2.669,3.246,3.246,0,0,0,2.073,0,22.179,22.179,0,0,0,2.669,3.307c.418.317,1.266-.394,1.266-.394s2,2.648,2.487,3.377a49.938,49.938,0,0,0-1.058-4.982,2.47,2.47,0,0,0,1.093-1.915,27.227,27.227,0,0,0-.488-3.272,2.511,2.511,0,0,0,.928-1.483A27.9,27.9,0,0,0,368,248.9,4.286,4.286,0,0,0,369.161,247a32.82,32.82,0,0,0,0-3.794,2.505,2.505,0,0,0,1.189-1.413,35.454,35.454,0,0,0,.286-4.442,5.688,5.688,0,0,0,1.687-2.084c.8-2.3,1.418-3.716,1.418-3.716V308.38Z" transform="translate(-2)"/><path class="b" d="M337.76,308.38s-.145-22.652,0-26.951c.322.529,2.809,4.013,2.809,4.013a.834.834,0,0,1,1.174.164,22.605,22.605,0,0,1,1.2,2.358,6.957,6.957,0,0,1,1.725.938,17.2,17.2,0,0,1,.832,1.593,1.8,1.8,0,0,1,1.262.483,12.947,12.947,0,0,1,1.028,1.741,2.382,2.382,0,0,1,1.38.454,12.99,12.99,0,0,1,1.126,1.892,2.409,2.409,0,0,1,1.54.356,10.532,10.532,0,0,1,.914,1.9s.658-.647,1.023-.366c1.313,1.011,2.234,1.651,2.234,1.651l-.114-1.985.677-1.2s-1.084-2.077-1.092-2.248a6.357,6.357,0,0,1,.378-1.768,11.078,11.078,0,0,1-1.235-2.124,6.7,6.7,0,0,1,0-1.866,11.851,11.851,0,0,1-1.871-1.974,6.641,6.641,0,0,1-.508-2.248s-2.575-1.88-3.505-2.8a21.108,21.108,0,0,0,4.644.894,28.091,28.091,0,0,1,2.87.748s.213-.6.709-.6c.545,0,3.475.2,3.475.2s.381-.649.8-.675a39.39,39.39,0,0,1,4.043.329,2.314,2.314,0,0,1,1.581-.735,32.865,32.865,0,0,1,4.243,0s-.034-.764.509-.879c1.285-.272,2.2-.507,2.2-.507s-.682-.3-2.1-.877c-.359-.146-.406-1.152-.406-1.152a28.693,28.693,0,0,1-4.759-.816,1.757,1.757,0,0,1-.916-1.194,42.259,42.259,0,0,1-4.772-.691,1.161,1.161,0,0,1-.856-1.048s-4.06-.3-5.149-.547c-1.2-.268-2.538-.526-3.846-.72.772-.322,2.532-1.225,2.532-1.225h1.575a1.606,1.606,0,0,1,.738-1.413,18.775,18.775,0,0,1,2.724-.8s-.328-.954.2-1.391a48.225,48.225,0,0,1,4.386-2.245s-.81-1.073-.122-1.812a20.821,20.821,0,0,1,3.227-2s-.358-1.357.153-2.025a30.366,30.366,0,0,1,3.258-2.779,2.626,2.626,0,0,1,0-1.94c.967-1.553,1.514-2.625,1.514-2.625s-.836.138-2.461.473a7.715,7.715,0,0,1-2.465-.473,19.113,19.113,0,0,1-3.628,1.922,7.02,7.02,0,0,1-2.544-.172,24.1,24.1,0,0,1-3.444,1.987,3.419,3.419,0,0,1-2.073-.346,32.572,32.572,0,0,1-3.77,2.669,3.258,3.258,0,0,1-2.077,0,22.185,22.185,0,0,1-2.674,3.307c-.418.317-1.269-.394-1.269-.394s-2.006,2.648-2.492,3.377a49.863,49.863,0,0,1,1.06-4.982,2.469,2.469,0,0,1-1.1-1.915,27.171,27.171,0,0,1,.489-3.272,2.511,2.511,0,0,1-.93-1.483,27.84,27.84,0,0,1,.268-3.666A4.286,4.286,0,0,1,340.928,247a32.758,32.758,0,0,1,0-3.794,2.507,2.507,0,0,1-1.191-1.413,35.388,35.388,0,0,1-.287-4.442,5.692,5.692,0,0,1-1.69-2.084c-.8-2.3-1.421-3.716-1.421-3.716V308.38Z" transform="translate(35.401)"/></g><g transform="translate(11.319 94.729)"><path class="c" d="M363.914,290.426s.111-17.359,0-20.653c-.246.405-2.148,3.075-2.148,3.075a.637.637,0,0,0-.9.126,17.335,17.335,0,0,0-.921,1.807,5.318,5.318,0,0,0-1.319.719,13.2,13.2,0,0,0-.636,1.221,1.372,1.372,0,0,0-.965.37,9.926,9.926,0,0,0-.786,1.334,1.82,1.82,0,0,0-1.056.348,9.962,9.962,0,0,0-.861,1.45,1.84,1.84,0,0,0-1.178.273,8.077,8.077,0,0,0-.7,1.453s-.5-.5-.782-.281c-1,.775-1.708,1.265-1.708,1.265l.087-1.521-.518-.916s.829-1.592.835-1.722a4.88,4.88,0,0,0-.289-1.355,8.492,8.492,0,0,0,.944-1.628,5.143,5.143,0,0,0,0-1.43,9.074,9.074,0,0,0,1.431-1.512,5.1,5.1,0,0,0,.389-1.723s1.97-1.44,2.681-2.147a16.113,16.113,0,0,1-3.552.685,21.45,21.45,0,0,0-2.195.573s-.163-.463-.542-.463c-.417,0-2.658.155-2.658.155s-.291-.5-.615-.517a30.06,30.06,0,0,0-3.092.252,1.769,1.769,0,0,0-1.209-.563,25.08,25.08,0,0,0-3.245,0s.026-.585-.389-.674c-.983-.208-1.681-.389-1.681-.389s.522-.232,1.6-.672c.274-.112.311-.883.311-.883a21.9,21.9,0,0,0,3.64-.625,1.346,1.346,0,0,0,.7-.915,32.258,32.258,0,0,0,3.649-.53.889.889,0,0,0,.654-.8s3.105-.232,3.938-.419c.915-.206,1.941-.4,2.942-.552-.591-.247-1.936-.939-1.936-.939h-1.2a1.232,1.232,0,0,0-.565-1.083,14.337,14.337,0,0,0-2.083-.612s.251-.731-.154-1.066a36.855,36.855,0,0,0-3.355-1.72s.62-.822.094-1.388a15.919,15.919,0,0,0-2.468-1.53s.274-1.04-.117-1.551a23.241,23.241,0,0,0-2.492-2.13,2.016,2.016,0,0,0,0-1.487c-.74-1.19-1.158-2.011-1.158-2.011s.639.105,1.882.363a5.89,5.89,0,0,0,1.885-.363,14.609,14.609,0,0,0,2.774,1.473,5.359,5.359,0,0,0,1.945-.132,18.419,18.419,0,0,0,2.634,1.523,2.61,2.61,0,0,0,1.586-.265,24.911,24.911,0,0,0,2.883,2.045,2.487,2.487,0,0,0,1.589,0,17,17,0,0,0,2.045,2.534c.32.243.97-.3.97-.3s1.534,2.029,1.906,2.588a38.272,38.272,0,0,0-.811-3.817,1.892,1.892,0,0,0,.838-1.468,20.865,20.865,0,0,0-.374-2.507,1.924,1.924,0,0,0,.711-1.137,21.384,21.384,0,0,0-.205-2.809,3.285,3.285,0,0,0,.893-1.461,25.146,25.146,0,0,0,0-2.907,1.92,1.92,0,0,0,.911-1.083,27.172,27.172,0,0,0,.219-3.4,4.359,4.359,0,0,0,1.293-1.6c.61-1.765,1.087-2.848,1.087-2.848v58.878Z" transform="translate(-2)"/><path class="c" d="M337.428,290.426s-.111-17.359,0-20.653c.247.405,2.153,3.075,2.153,3.075a.639.639,0,0,1,.9.126,17.321,17.321,0,0,1,.923,1.807,5.332,5.332,0,0,1,1.322.719,13.178,13.178,0,0,1,.638,1.221,1.376,1.376,0,0,1,.967.37,9.924,9.924,0,0,1,.788,1.334,1.826,1.826,0,0,1,1.058.348,9.955,9.955,0,0,1,.863,1.45,1.846,1.846,0,0,1,1.18.273,8.07,8.07,0,0,1,.7,1.453s.5-.5.784-.281c1.007.775,1.712,1.265,1.712,1.265l-.087-1.521.519-.916s-.83-1.592-.836-1.722a4.871,4.871,0,0,1,.29-1.355,8.489,8.489,0,0,1-.946-1.628,5.133,5.133,0,0,1,0-1.43,9.082,9.082,0,0,1-1.434-1.512,5.089,5.089,0,0,1-.39-1.723s-1.973-1.44-2.686-2.147a16.174,16.174,0,0,0,3.559.685,21.528,21.528,0,0,1,2.2.573s.164-.463.543-.463c.418,0,2.663.155,2.663.155s.292-.5.616-.517a30.181,30.181,0,0,1,3.1.252,1.773,1.773,0,0,1,1.211-.563,25.182,25.182,0,0,1,3.252,0s-.026-.585.39-.674c.985-.208,1.685-.389,1.685-.389s-.523-.232-1.607-.672c-.275-.112-.311-.883-.311-.883a21.989,21.989,0,0,1-3.647-.625,1.346,1.346,0,0,1-.7-.915,32.382,32.382,0,0,1-3.657-.53.89.89,0,0,1-.656-.8s-3.111-.232-3.946-.419c-.917-.206-1.945-.4-2.948-.552.592-.247,1.94-.939,1.94-.939h1.207a1.231,1.231,0,0,1,.566-1.083,14.388,14.388,0,0,1,2.087-.612s-.252-.731.154-1.066a36.957,36.957,0,0,1,3.361-1.72s-.621-.822-.094-1.388a15.956,15.956,0,0,1,2.473-1.53s-.275-1.04.117-1.551a23.274,23.274,0,0,1,2.5-2.13,2.012,2.012,0,0,1,0-1.487c.741-1.19,1.16-2.011,1.16-2.011s-.641.105-1.886.363a5.912,5.912,0,0,1-1.889-.363,14.648,14.648,0,0,1-2.78,1.473,5.38,5.38,0,0,1-1.949-.132,18.466,18.466,0,0,1-2.639,1.523,2.62,2.62,0,0,1-1.589-.265,24.96,24.96,0,0,1-2.889,2.045,2.5,2.5,0,0,1-1.592,0,17,17,0,0,1-2.049,2.534c-.321.243-.972-.3-.972-.3s-1.537,2.029-1.91,2.588a38.216,38.216,0,0,1,.812-3.817,1.892,1.892,0,0,1-.84-1.468,20.824,20.824,0,0,1,.374-2.507,1.924,1.924,0,0,1-.713-1.137,21.335,21.335,0,0,1,.206-2.809,3.284,3.284,0,0,1-.894-1.461,25.1,25.1,0,0,1,0-2.907,1.921,1.921,0,0,1-.913-1.083,27.119,27.119,0,0,1-.22-3.4,4.361,4.361,0,0,1-1.3-1.6c-.612-1.765-1.089-2.848-1.089-2.848v58.878Z" transform="translate(26.661)"/></g></g></svg>