<svg xmlns="http://www.w3.org/2000/svg" width="143.667" height="37.463" viewBox="0 0 143.667 37.463"><defs><style>.a{fill:#326a02;}.b{fill:#4b9d04;}.c{fill:#3f8801;}.d{fill:#2f6403;}.e{fill:#449600;}.f{fill:#3b8100;}</style></defs><g transform="translate(-337.886 -347.692)"><path class="a" d="M337.886,394.166C339,382.159,345.3,363.1,345.3,363.1s-4.422,21.374-2.908,31.062Z" transform="translate(0 -9.01)"/><path class="a" d="M337.886,394.166C339,382.159,345.3,363.1,345.3,363.1s-4.422,21.374-2.908,31.062Z" transform="translate(15.494 -9.01)"/><path class="a" d="M337.886,394.166C339,382.159,345.3,363.1,345.3,363.1s-4.422,21.374-2.908,31.062Z" transform="translate(33.804 -9.01)"/><path class="a" d="M337.886,394.166C339,382.159,345.3,363.1,345.3,363.1s-4.422,21.374-2.908,31.062Z" transform="translate(49.298 -9.01)"/><path class="a" d="M337.886,394.166C339,382.159,345.3,363.1,345.3,363.1s-4.422,21.374-2.908,31.062Z" transform="translate(121.131 -9.01)"/><path class="a" d="M337.886,394.166C339,382.159,345.3,363.1,345.3,363.1s-4.422,21.374-2.908,31.062Z" transform="translate(94.37 -9.01)"/><path class="a" d="M337.886,394.166C339,382.159,345.3,363.1,345.3,363.1s-4.422,21.374-2.908,31.062Z" transform="translate(119.723 -9.01)"/><path class="a" d="M344.213,394.166c-.953-12.007-6.327-31.062-6.327-31.062s3.772,21.374,2.481,31.062Z" transform="translate(134.523 -9.01)"/><path class="a" d="M344.213,394.166c-.953-12.007-6.327-31.062-6.327-31.062s3.772,21.374,2.481,31.062Z" transform="translate(88.042 -9.01)"/><path class="a" d="M344.213,394.166c-.953-12.007-6.327-31.062-6.327-31.062s3.772,21.374,2.481,31.062Z" transform="translate(128.889 -9.01)"/><path class="a" d="M344.213,384.617c-.953-8.316-6.327-21.514-6.327-21.514s3.772,14.8,2.481,21.514Z" transform="translate(83.817 0.538)"/><path class="a" d="M344.213,384.617c-.953-8.316-6.327-21.514-6.327-21.514s3.772,14.8,2.481,21.514Z" transform="translate(107.761 0.538)"/><path class="a" d="M344.213,384.617c-.953-8.316-6.327-21.514-6.327-21.514s3.772,14.8,2.481,21.514Z" transform="translate(57.055 0.538)"/><path class="a" d="M344.213,384.617c-.953-8.316-6.327-21.514-6.327-21.514s3.772,14.8,2.481,21.514Z" transform="translate(41.562 0.538)"/><path class="a" d="M337.886,384.617c.849-8.316,5.634-21.514,5.634-21.514s-3.359,14.8-2.209,21.514Z" transform="translate(28.17 0.538)"/><path class="a" d="M337.886,388.987c.849-10.005,5.634-25.883,5.634-25.883s-3.359,17.811-2.209,25.883Z" transform="translate(115.497 -3.832)"/><path class="a" d="M337.886,384.617c.849-8.316,5.634-21.514,5.634-21.514s-3.359,14.8-2.209,21.514Z" transform="translate(112.68 0.538)"/><path class="a" d="M337.886,384.617c.849-8.316,5.634-21.514,5.634-21.514s-3.359,14.8-2.209,21.514Z" transform="translate(2.817 0.538)"/><path class="b" d="M344.716,384.617c-1.029-8.316-6.831-21.514-6.831-21.514s4.073,14.8,2.678,21.514Z" transform="translate(29.79 0.538)"/><path class="b" d="M344.716,384.617c-1.029-8.316-6.831-21.514-6.831-21.514s4.073,14.8,2.678,21.514Z" transform="translate(10.071 0.538)"/><path class="b" d="M344.716,389.583c-1.029-10.235-6.831-26.479-6.831-26.479s4.073,18.221,2.678,26.479Z" transform="translate(59.369 -4.427)"/><path class="b" d="M344.716,389.583c-1.029-10.235-6.831-26.479-6.831-26.479s4.073,18.221,2.678,26.479Z" transform="translate(76.271 -4.427)"/><path class="b" d="M344.716,389.583c-1.029-10.235-6.831-26.479-6.831-26.479s4.073,18.221,2.678,26.479Z" transform="translate(43.875 -4.427)"/><path class="b" d="M344.716,381.518c-1.029-7.118-6.831-18.415-6.831-18.415s4.073,12.672,2.678,18.415Z" transform="translate(38.241 3.637)"/><path class="b" d="M344.716,381.518c-1.029-7.118-6.831-18.415-6.831-18.415s4.073,12.672,2.678,18.415Z" transform="translate(97.398 3.637)"/><path class="b" d="M344.716,381.518c-1.029-7.118-6.831-18.415-6.831-18.415s4.073,12.672,2.678,18.415Z" transform="translate(97.398 3.637)"/><path class="b" d="M344.716,387.516c-1.029-9.436-6.831-24.412-6.831-24.412s4.073,16.8,2.678,24.412Z" transform="translate(104.441 -2.361)"/><path class="c" d="M344.716,387.516c-1.029-9.436-6.831-24.412-6.831-24.412s4.073,16.8,2.678,24.412Z" transform="translate(100.215 -2.361)"/><path class="c" d="M344.716,396.542c-1.029-12.925-6.831-33.438-6.831-33.438s4.073,23.01,2.678,33.438Z" transform="translate(79.088 -11.387)"/><path class="c" d="M344.716,393.794c-1.029-11.863-6.831-30.69-6.831-30.69s4.073,21.119,2.678,30.69Z" transform="translate(62.186 -8.639)"/><path class="d" d="M344.716,398.646c-1.029-13.739-6.831-35.542-6.831-35.542s4.073,24.458,2.678,35.542Z" transform="translate(53.735 -13.491)"/><path class="d" d="M346.337,389.583c-1.273-10.235-8.451-26.479-8.451-26.479s5.039,18.221,3.314,26.479Z" transform="translate(49.298 -4.428)"/><path class="d" d="M346.337,389.583c-1.273-10.235-8.451-26.479-8.451-26.479s5.039,18.221,3.314,26.479Z" transform="translate(69.017 -4.428)"/><path class="d" d="M346.337,397.819c-1.273-13.419-8.451-34.715-8.451-34.715s5.039,23.888,3.314,34.715Z" transform="translate(71.834 -12.664)"/><path class="d" d="M337.886,400.567c.953-14.481,6.327-37.463,6.327-37.463s-3.772,25.779-2.481,37.463Z" transform="translate(66.915 -15.412)"/><path class="d" d="M337.886,397.819c.953-13.419,6.327-34.715,6.327-34.715s-3.772,23.889-2.481,34.715Z" transform="translate(38.745 -12.664)"/><path class="d" d="M337.886,397.819c.953-13.419,6.327-34.715,6.327-34.715s-3.772,23.889-2.481,34.715Z" transform="translate(30.294 -12.664)"/><path class="e" d="M337.886,397.819c.953-13.419,6.327-34.715,6.327-34.715s-3.772,23.889-2.481,34.715Z" transform="translate(24.66 -12.664)"/><path class="e" d="M337.886,397.819c1.378-13.419,9.144-34.715,9.144-34.715s-5.452,23.889-3.585,34.715Z" transform="translate(19.026 -12.664)"/><path class="e" d="M337.886,397.819c1.378-13.419,9.144-34.715,9.144-34.715s-5.452,23.889-3.585,34.715Z" transform="translate(4.941 -12.664)"/><path class="f" d="M337.886,391.607c1.166-11.018,7.736-28.5,7.736-28.5s-4.612,19.614-3.033,28.5Z" transform="translate(9.166 -6.452)"/><path class="d" d="M337.886,400.567c.953-14.481,6.327-37.463,6.327-37.463s-3.772,25.779-2.481,37.463Z" transform="translate(66.915 -15.412)"/><path class="a" d="M337.886,394.166C339,382.159,345.3,363.1,345.3,363.1s-4.422,21.374-2.908,31.062Z" transform="translate(0 -9.01)"/><path class="a" d="M337.886,394.166C339,382.159,345.3,363.1,345.3,363.1s-4.422,21.374-2.908,31.062Z" transform="translate(15.494 -9.01)"/><path class="a" d="M337.886,394.166C339,382.159,345.3,363.1,345.3,363.1s-4.422,21.374-2.908,31.062Z" transform="translate(33.804 -9.01)"/><path class="a" d="M344.213,384.617c-.953-8.316-6.327-21.514-6.327-21.514s3.772,14.8,2.481,21.514Z" transform="translate(41.562 0.538)"/><path class="a" d="M337.886,384.617c.849-8.316,5.634-21.514,5.634-21.514s-3.359,14.8-2.209,21.514Z" transform="translate(28.17 0.538)"/><path class="a" d="M337.886,384.617c.849-8.316,5.634-21.514,5.634-21.514s-3.359,14.8-2.209,21.514Z" transform="translate(2.817 0.538)"/><path class="b" d="M344.716,384.617c-1.029-8.316-6.831-21.514-6.831-21.514s4.073,14.8,2.678,21.514Z" transform="translate(29.79 0.538)"/><path class="b" d="M344.716,384.617c-1.029-8.316-6.831-21.514-6.831-21.514s4.073,14.8,2.678,21.514Z" transform="translate(10.071 0.538)"/><path class="b" d="M344.716,389.583c-1.029-10.235-6.831-26.479-6.831-26.479s4.073,18.221,2.678,26.479Z" transform="translate(43.875 -4.427)"/><path class="b" d="M344.716,381.518c-1.029-7.118-6.831-18.415-6.831-18.415s4.073,12.672,2.678,18.415Z" transform="translate(38.241 3.637)"/><path class="d" d="M337.886,397.819c.953-13.419,6.327-34.715,6.327-34.715s-3.772,23.889-2.481,34.715Z" transform="translate(38.745 -12.664)"/><path class="d" d="M337.886,397.819c.953-13.419,6.327-34.715,6.327-34.715s-3.772,23.889-2.481,34.715Z" transform="translate(30.294 -12.664)"/><path class="e" d="M337.886,397.819c.953-13.419,6.327-34.715,6.327-34.715s-3.772,23.889-2.481,34.715Z" transform="translate(24.66 -12.664)"/><path class="e" d="M337.886,397.819c1.378-13.419,9.144-34.715,9.144-34.715s-5.452,23.889-3.585,34.715Z" transform="translate(19.026 -12.664)"/><path class="e" d="M337.886,397.819c1.378-13.419,9.144-34.715,9.144-34.715s-5.452,23.889-3.585,34.715Z" transform="translate(4.941 -12.664)"/><path class="f" d="M337.886,391.607c1.166-11.018,7.736-28.5,7.736-28.5s-4.612,19.614-3.033,28.5Z" transform="translate(9.166 -6.452)"/><path class="a" d="M337.886,394.166C339,382.159,345.3,363.1,345.3,363.1s-4.422,21.374-2.908,31.062Z" transform="translate(130.991 -9.01)"/><path class="b" d="M344.716,384.617c-1.029-8.316-6.831-21.514-6.831-21.514s4.073,14.8,2.678,21.514Z" transform="translate(125.569 0.538)"/><path class="e" d="M337.886,397.819c1.378-13.419,9.144-34.715,9.144-34.715s-5.452,23.889-3.585,34.715Z" transform="translate(134.523 -12.664)"/><path class="f" d="M337.886,391.607c1.166-11.018,7.736-28.5,7.736-28.5s-4.612,19.614-3.033,28.5Z" transform="translate(124.664 -6.452)"/><path class="a" d="M337.886,394.166C339,382.159,345.3,363.1,345.3,363.1s-4.422,21.374-2.908,31.062Z" transform="translate(130.991 -9.01)"/><path class="b" d="M344.716,384.617c-1.029-8.316-6.831-21.514-6.831-21.514s4.073,14.8,2.678,21.514Z" transform="translate(125.569 0.538)"/><path class="e" d="M337.886,397.819c1.378-13.419,9.144-34.715,9.144-34.715s-5.452,23.889-3.585,34.715Z" transform="translate(134.523 -12.664)"/><path class="f" d="M337.886,391.607c1.166-11.018,7.736-28.5,7.736-28.5s-4.612,19.614-3.033,28.5Z" transform="translate(124.664 -6.452)"/><path class="d" d="M346.337,398.646c-1.273-13.739-8.451-35.542-8.451-35.542s5.039,24.458,3.314,35.542Z" transform="translate(66.017 -13.491)"/><path class="a" d="M344.213,384.617c-.953-8.316-6.327-21.514-6.327-21.514s3.772,14.8,2.481,21.514Z" transform="translate(82.055 0.538)"/><path class="b" d="M344.716,389.583c-1.029-10.235-6.831-26.479-6.831-26.479s4.073,18.221,2.678,26.479Z" transform="translate(84.369 -4.427)"/><path class="c" d="M344.716,393.794c-1.029-11.863-6.831-30.69-6.831-30.69s4.073,21.119,2.678,30.69Z" transform="translate(87.99 -8.639)"/><path class="d" d="M346.337,389.583c-1.273-10.235-8.451-26.479-8.451-26.479s5.039,18.221,3.314,26.479Z" transform="translate(96.588 -4.428)"/><path class="d" d="M346.337,397.819c-1.273-13.419-8.451-34.715-8.451-34.715s5.039,23.888,3.314,34.715Z" transform="translate(99.405 -12.664)"/><path class="d" d="M337.886,400.567c.953-14.481,6.327-37.463,6.327-37.463s-3.772,25.779-2.481,37.463Z" transform="translate(93.415 -15.412)"/><path class="d" d="M337.886,400.567c.953-14.481,6.327-37.463,6.327-37.463s-3.772,25.779-2.481,37.463Z" transform="translate(93.415 -15.412)"/><path class="d" d="M346.337,398.646c-1.273-13.739-8.451-35.542-8.451-35.542s5.039,24.458,3.314,35.542Z" transform="translate(92.576 -13.491)"/><path class="a" d="M337.886,394.166C339,382.159,345.3,363.1,345.3,363.1s-4.422,21.374-2.908,31.062Z" transform="translate(112.131 -9.01)"/><path class="a" d="M337.886,394.166C339,382.159,345.3,363.1,345.3,363.1s-4.422,21.374-2.908,31.062Z" transform="translate(110.723 -9.01)"/><path class="a" d="M337.886,388.987c.849-10.005,5.634-25.883,5.634-25.883s-3.359,17.811-2.209,25.883Z" transform="translate(106.497 -3.832)"/><path class="a" d="M337.886,384.617c.849-8.316,5.634-21.514,5.634-21.514s-3.359,14.8-2.209,21.514Z" transform="translate(103.68 0.538)"/><path class="b" d="M344.716,384.617c-1.029-8.316-6.831-21.514-6.831-21.514s4.073,14.8,2.678,21.514Z" transform="translate(116.569 0.538)"/><path class="f" d="M337.886,391.607c1.166-11.018,7.736-28.5,7.736-28.5s-4.612,19.614-3.033,28.5Z" transform="translate(115.664 -6.452)"/><path class="b" d="M344.716,384.617c-1.029-8.316-6.831-21.514-6.831-21.514s4.073,14.8,2.678,21.514Z" transform="translate(116.569 0.538)"/><path class="f" d="M337.886,391.607c1.166-11.018,7.736-28.5,7.736-28.5s-4.612,19.614-3.033,28.5Z" transform="translate(115.664 -6.452)"/></g></svg>