<svg xmlns="http://www.w3.org/2000/svg" width="206.106" height="160.627" viewBox="0 0 206.106 160.627"><defs><style>.a{fill:#009657;}.b{fill:#f07800;stroke:#ce6700;stroke-linecap:round;stroke-width:3px;}.c{fill:#07693f;}</style></defs><g transform="translate(0 0)"><path class="a" d="M366.849,295.977a19.3,19.3,0,0,0-5.44,12.983c-.35,6.88,5.1,5.271,4.616,1.12s7.136-14.79,7.136-14.79S368.717,294.215,366.849,295.977Z" transform="translate(-290.896 -225.561)"/><g transform="translate(-292.896 -208.561)"><path class="b" d="M364.958,335.578s-6.956,6.879-12.487,3.12-10.913-8.257-10.12-19.785-3.3-19.077,3.207-24.461,19.4,0,19.4,0,12.545-4.611,18.073,0,1.64,7.634,2.211,19.162-2.739,18.2-8.267,21.963S364.958,335.578,364.958,335.578Z"/><path class="b" d="M367.334,294.245s-9.214-7.362-14.421-1.863.293,15.859,0,25.568.806,11.333,3.7,16.844,10.144.616,10.144.616" transform="translate(-2.191)"/></g><path class="a" d="M396.566,382.827l.789-87.379-10.858-4.3s-43.431,40.674-87.759-50.341c86.99-9.461,90.543,41.445,90.543,41.445l9.89,4.426c3.152-16.668,16.267-29.643,16.267-29.643S411.3,208,504.844,226.284c-47.155,73.464-85.1,38.5-85.1,38.5s-10.577,6.8-12.326,36.314,5.329,81.729,5.329,81.729Z" transform="translate(-298.738 -222.2)"/><path class="c" d="M406.717,382.827c-4.489-28.021-5.084-74.036-4.248-83.429s2.3-24.421,17.272-41.461c35.956-3.2,46.565-39.187,85.1-31.653-47.155,73.464-85.1,38.5-85.1,38.5s-10.577,6.8-12.326,36.314,5.329,81.729,5.329,81.729Z" transform="translate(-298.738 -222.2)"/><path class="c" d="M397.355,295.447l-10.858-4.3s-43.431,40.674-87.759-50.341c36.307,41.72,40.616,55.251,87.759,44.876,2.649,5.535,11.765,5.465,11.765,5.465Z" transform="translate(-298.738 -222.2)"/></g></svg>