<svg xmlns="http://www.w3.org/2000/svg" width="206.106" height="160.627" viewBox="0 0 206.106 160.627"><defs><style>.a{fill:#009657;}.b{fill:#07693f;}</style></defs><g transform="translate(0 0)"><path class="a" d="M396.566,382.827l.789-87.379-10.858-4.3s-43.431,40.674-87.759-50.341c86.99-9.461,90.543,41.445,90.543,41.445l9.89,4.426c3.152-16.668,16.267-29.643,16.267-29.643S411.3,208,504.844,226.284c-47.155,73.464-85.1,38.5-85.1,38.5s-10.577,6.8-12.326,36.314,5.329,81.729,5.329,81.729Z" transform="translate(-298.738 -222.2)"/><path class="b" d="M406.717,382.827c-4.489-28.021-5.084-74.036-4.248-83.429s2.3-24.421,17.272-41.461c35.956-3.2,46.565-39.187,85.1-31.653-47.155,73.464-85.1,38.5-85.1,38.5s-10.577,6.8-12.326,36.314,5.329,81.729,5.329,81.729Z" transform="translate(-298.738 -222.2)"/><path class="b" d="M397.355,295.447l-10.858-4.3s-43.431,40.674-87.759-50.341c36.307,41.72,40.616,55.251,87.759,44.876,2.649,5.535,11.765,5.465,11.765,5.465Z" transform="translate(-298.738 -222.2)"/></g></svg>