<svg id="svg" version="1.1" xmlns="http://www.w3.org/2000/svg" xmlns:xlink="http://www.w3.org/1999/xlink" width="400" height="400" viewBox="0, 0, 400,400"><g id="svgg"><path id="path0" d="M190.625 88.865 C 174.908 92.382,163.163 105.155,158.476 123.828 L 157.643 127.148 157.526 219.985 C 157.420 304.361,157.466 312.879,158.029 313.442 C 158.978 314.391,236.725 314.391,237.674 313.442 C 238.237 312.879,238.283 304.361,238.177 219.985 L 238.060 127.148 237.227 123.828 C 231.072 99.303,211.063 84.292,190.625 88.865 " stroke="none" fill="#fcfcfc" fill-rule="evenodd"></path><path id="path1" d="M189.844 83.005 C 171.994 86.585,158.067 101.347,152.804 122.266 L 151.773 126.367 151.661 223.145 L 151.550 319.922 197.852 319.922 L 244.153 319.922 244.042 223.145 L 243.930 126.367 242.899 122.266 C 235.998 94.836,213.577 78.244,189.844 83.005 M206.836 89.250 C 221.640 93.352,232.751 105.993,237.227 123.828 L 238.060 127.148 238.177 219.985 C 238.283 304.361,238.237 312.879,237.674 313.442 C 236.725 314.391,158.978 314.391,158.029 313.442 C 157.466 312.879,157.420 304.361,157.526 219.985 L 157.643 127.148 158.476 123.828 C 163.163 105.155,174.908 92.382,190.625 88.865 C 194.002 88.109,203.537 88.336,206.836 89.250 " stroke="none" fill="#040404" fill-rule="evenodd"></path></g></svg>