<svg id="svg" version="1.1" xmlns="http://www.w3.org/2000/svg" xmlns:xlink="http://www.w3.org/1999/xlink" width="400" height="400" viewBox="0, 0, 400,400"><g id="svgg"><path id="path0" d="M163.793 127.096 C 163.906 127.390,170.099 136.197,177.557 146.668 C 185.014 157.139,191.137 165.935,191.163 166.215 C 191.190 166.495,184.268 176.081,175.781 187.519 C 167.295 198.956,160.211 208.553,160.039 208.845 C 159.781 209.283,160.865 209.371,166.289 209.355 L 172.852 209.335 182.813 195.449 C 188.291 187.811,193.707 180.130,194.849 178.379 C 195.991 176.628,197.060 175.058,197.225 174.890 C 197.390 174.722,198.374 175.864,199.411 177.429 C 203.554 183.676,221.625 209.063,222.044 209.224 C 222.290 209.318,225.357 209.347,228.860 209.287 L 235.228 209.180 219.763 187.589 C 211.256 175.714,204.297 165.863,204.297 165.699 C 204.297 165.534,210.712 156.793,218.552 146.274 C 226.392 135.755,232.809 127.017,232.810 126.855 C 232.811 126.694,230.220 126.563,227.051 126.563 L 221.289 126.564 211.077 140.137 C 205.460 147.603,200.274 154.631,199.553 155.755 C 197.922 158.297,198.228 158.398,195.797 154.524 C 193.755 151.269,177.814 128.552,176.657 127.246 C 175.845 126.331,163.444 126.186,163.793 127.096 " stroke="none" fill="#ec2d2d" fill-rule="evenodd"></path><path id="path1" d="M189.844 83.005 C 171.994 86.585,158.067 101.347,152.804 122.266 L 151.773 126.367 151.661 223.145 L 151.550 319.922 197.852 319.922 L 244.153 319.922 244.042 223.145 L 243.930 126.367 242.899 122.266 C 235.998 94.836,213.577 78.244,189.844 83.005 M206.836 89.250 C 221.640 93.352,232.751 105.993,237.227 123.828 L 238.060 127.148 238.177 219.985 C 238.283 304.361,238.237 312.879,237.674 313.442 C 236.725 314.391,158.978 314.391,158.029 313.442 C 157.466 312.879,157.420 304.361,157.526 219.985 L 157.643 127.148 158.476 123.828 C 163.163 105.155,174.908 92.382,190.625 88.865 C 194.002 88.109,203.537 88.336,206.836 89.250 " stroke="none" fill="#040404" fill-rule="evenodd"></path><path id="path2" d="M190.625 88.865 C 174.908 92.382,163.163 105.155,158.476 123.828 L 157.643 127.148 157.526 219.985 C 157.420 304.361,157.466 312.879,158.029 313.442 C 158.978 314.391,236.725 314.391,237.674 313.442 C 238.237 312.879,238.283 304.361,238.177 219.985 L 238.060 127.148 237.227 123.828 C 231.072 99.303,211.063 84.292,190.625 88.865 M176.657 127.246 C 177.814 128.552,193.755 151.269,195.797 154.524 C 198.228 158.398,197.922 158.297,199.553 155.755 C 200.274 154.631,205.460 147.603,211.077 140.137 L 221.289 126.564 227.051 126.563 C 230.220 126.563,232.811 126.694,232.810 126.855 C 232.809 127.017,226.392 135.755,218.552 146.274 C 210.712 156.793,204.297 165.534,204.297 165.699 C 204.297 165.863,211.256 175.714,219.763 187.589 L 235.228 209.180 228.860 209.287 C 225.357 209.347,222.290 209.318,222.044 209.224 C 221.625 209.063,203.554 183.676,199.411 177.429 C 198.374 175.864,197.390 174.722,197.225 174.890 C 197.060 175.058,195.991 176.628,194.849 178.379 C 193.707 180.130,188.291 187.811,182.813 195.449 L 172.852 209.335 166.289 209.355 C 160.865 209.371,159.781 209.283,160.039 208.845 C 160.211 208.553,167.295 198.956,175.781 187.519 C 184.268 176.081,191.190 166.495,191.163 166.215 C 191.137 165.935,185.014 157.139,177.557 146.668 C 170.099 136.197,163.906 127.390,163.793 127.096 C 163.444 126.186,175.845 126.331,176.657 127.246 " stroke="none" fill="#fcfbfb" fill-rule="evenodd"></path></g></svg>