<svg xmlns="http://www.w3.org/2000/svg" width="206.106" height="160.627" viewBox="0 0 206.106 160.627"><defs><style>.a{fill:#c43737;}.b{fill:#eb4d4d;}.c{fill:#07693f;}.d{fill:#009657;}</style></defs><g transform="translate(0 0)"><g transform="translate(100 -27)"><circle class="a" cx="19" cy="19" r="19" transform="translate(28.104 89.706)"/><path class="b" d="M19,0C29.493,0,0,29.493,0,19A19,19,0,0,1,19,0Z" transform="translate(28.104 89.706)"/></g><g transform="translate(-4)"><circle class="a" cx="19" cy="19" r="19" transform="translate(45.104 88.706)"/><path class="b" d="M19,0C29.493,0,0,29.493,0,19A19,19,0,0,1,19,0Z" transform="translate(45.104 88.706)"/></g><path class="c" d="M359.48,316.985l5.413.746.3,6.665,5.288-5.961,8.031,2.619-8.031-6.558a19.386,19.386,0,0,1,4.055-10.479,25.093,25.093,0,0,1,9.02-6.853s-6.832.033-11.595,4.467a20.626,20.626,0,0,0-5.859,11.88C366.049,313.987,359.48,316.985,359.48,316.985Z" transform="translate(-305.896 -224.561)"/><path class="c" d="M387.167,315.768l-4.42,1.591,1.212,4.159-6.344-3.24-6.545,1.266,5.513-5.195a19.644,19.644,0,0,0-4.287-10.333,25.353,25.353,0,0,0-9.115-6.853s6.9.033,11.717,4.467c3.773,3.476,5.322,9.845,5.7,13.027C380.654,315.134,387.167,315.768,387.167,315.768Z" transform="translate(-232.488 -250.561)"/><path class="d" d="M396.566,382.827l.789-87.379-10.858-4.3s-43.431,40.674-87.759-50.341c86.99-9.461,90.543,41.445,90.543,41.445l9.89,4.426c3.152-16.668,16.267-29.643,16.267-29.643S411.3,208,504.844,226.284c-47.155,73.464-85.1,38.5-85.1,38.5s-10.577,6.8-12.326,36.314,5.329,81.729,5.329,81.729Z" transform="translate(-298.738 -222.2)"/><path class="c" d="M406.717,382.827c-4.489-28.021-5.084-74.036-4.248-83.429s2.3-24.421,17.272-41.461c35.956-3.2,46.565-39.187,85.1-31.653-47.155,73.464-85.1,38.5-85.1,38.5s-10.577,6.8-12.326,36.314,5.329,81.729,5.329,81.729Z" transform="translate(-298.738 -222.2)"/><path class="c" d="M397.355,295.447l-10.858-4.3s-43.431,40.674-87.759-50.341c36.307,41.72,40.616,55.251,87.759,44.876,2.649,5.535,11.765,5.465,11.765,5.465Z" transform="translate(-298.738 -222.2)"/></g></svg>